<svg width="37" height="36" viewBox="0 0 37 36" fill="none" xmlns="http://www.w3.org/2000/svg">
<path d="M12.1329 3H24.7329C29.5329 3 33.4329 6.9 33.4329 11.7V24.3C33.4329 26.6074 32.5163 28.8203 30.8847 30.4518C29.2531 32.0834 27.0402 33 24.7329 33H12.1329C7.33286 33 3.43286 29.1 3.43286 24.3V11.7C3.43286 9.39262 4.34947 7.17974 5.98103 5.54817C7.6126 3.9166 9.82548 3 12.1329 3ZM11.8329 6C10.4007 6 9.02718 6.56893 8.01448 7.58162C7.00179 8.59432 6.43286 9.96783 6.43286 11.4V24.6C6.43286 27.585 8.84786 30 11.8329 30H25.0329C26.465 30 27.8385 29.4311 28.8512 28.4184C29.8639 27.4057 30.4329 26.0322 30.4329 24.6V11.4C30.4329 8.415 28.0179 6 25.0329 6H11.8329ZM26.3079 8.25C26.8051 8.25 27.2821 8.44754 27.6337 8.79917C27.9853 9.1508 28.1829 9.62772 28.1829 10.125C28.1829 10.6223 27.9853 11.0992 27.6337 11.4508C27.2821 11.8025 26.8051 12 26.3079 12C25.8106 12 25.3337 11.8025 24.982 11.4508C24.6304 11.0992 24.4329 10.6223 24.4329 10.125C24.4329 9.62772 24.6304 9.1508 24.982 8.79917C25.3337 8.44754 25.8106 8.25 26.3079 8.25ZM18.4329 10.5C20.422 10.5 22.3296 11.2902 23.7362 12.6967C25.1427 14.1032 25.9329 16.0109 25.9329 18C25.9329 19.9891 25.1427 21.8968 23.7362 23.3033C22.3296 24.7098 20.422 25.5 18.4329 25.5C16.4437 25.5 14.5361 24.7098 13.1296 23.3033C11.723 21.8968 10.9329 19.9891 10.9329 18C10.9329 16.0109 11.723 14.1032 13.1296 12.6967C14.5361 11.2902 16.4437 10.5 18.4329 10.5ZM18.4329 13.5C17.2394 13.5 16.0948 13.9741 15.2509 14.818C14.407 15.6619 13.9329 16.8065 13.9329 18C13.9329 19.1935 14.407 20.3381 15.2509 21.182C16.0948 22.0259 17.2394 22.5 18.4329 22.5C19.6263 22.5 20.7709 22.0259 21.6148 21.182C22.4588 20.3381 22.9329 19.1935 22.9329 18C22.9329 16.8065 22.4588 15.6619 21.6148 14.818C20.7709 13.9741 19.6263 13.5 18.4329 13.5Z" fill="black"/>
</svg>
