<svg width="37" height="36" viewBox="0 0 37 36" fill="none" xmlns="http://www.w3.org/2000/svg">
<path d="M30.4331 27H27.4331V13.875L18.4331 19.5L9.43307 13.875V27H6.43307V9H8.23307L18.4331 15.375L28.6331 9H30.4331M30.4331 6H6.43307C4.76807 6 3.43307 7.335 3.43307 9V27C3.43307 27.7956 3.74915 28.5587 4.31175 29.1213C4.87436 29.6839 5.63743 30 6.43307 30H30.4331C31.2287 30 31.9918 29.6839 32.5544 29.1213C33.117 28.5587 33.4331 27.7956 33.4331 27V9C33.4331 8.20435 33.117 7.44129 32.5544 6.87868C31.9918 6.31607 31.2287 6 30.4331 6Z" fill="black"/>
</svg>
