<svg width="54" height="26" viewBox="0 0 54 26" fill="none" xmlns="http://www.w3.org/2000/svg">
<path fill-rule="evenodd" clip-rule="evenodd" d="M35.7849 3.17933C36.1453 3.52729 36.3709 3.89449 36.4555 4.2683C39.4173 4.46942 42.2089 5.49379 44.3271 7.17588C46.7009 9.06098 48.0345 11.6177 48.0345 14.2837H45.9546C45.9546 12.0558 44.8401 9.91918 42.8564 8.34384C40.8726 6.7685 38.182 5.88348 35.3766 5.88348C32.6867 5.88348 30.3669 6.49119 28.4318 7.92979C28.6018 8.09526 28.7648 8.26464 28.9205 8.43765C30.7503 7.40659 33.0224 6.83779 35.3766 6.83779C38.1412 6.83779 40.7927 7.62226 42.7476 9.01863C44.7025 10.415 45.8008 12.3089 45.8008 14.2837H44.0879C44.0879 12.6334 43.1701 11.0507 41.5364 9.88378C39.9027 8.71686 37.6869 8.0613 35.3766 8.06129C33.3177 8.06129 31.334 8.58189 29.7704 9.52104C29.8951 9.70514 30.0125 9.89219 30.1224 10.0819C31.6335 9.19275 33.5612 8.69926 35.5627 8.69926C37.7843 8.69926 39.915 9.30723 41.4859 10.3894C43.0568 11.4716 43.9393 12.9394 43.9393 14.4698H42.5629C42.5629 13.1908 41.8254 11.9643 40.5126 11.0599C39.1998 10.1555 37.4193 9.64748 35.5627 9.64748C33.7062 9.64748 31.9256 10.1555 30.6129 11.0599L30.6127 11.06C30.6635 11.1791 30.7115 11.2991 30.7567 11.4198C32.001 10.6303 33.6546 10.1884 35.3766 10.1884C37.1539 10.1884 38.8584 10.6591 40.1151 11.4969C41.3059 12.2908 42.0022 13.3526 42.072 14.4698H53.619C53.619 15.9739 52.9185 17.463 51.5581 18.8506C50.1978 20.2382 48.2047 21.4968 45.6947 22.5531C43.1847 23.6094 40.2077 24.4425 36.9366 25.004C33.6655 25.5654 30.1656 25.8441 26.6399 25.8237C23.1143 25.8034 19.6333 25.4845 16.399 24.8855C13.1647 24.2865 10.2417 23.4193 7.79952 22.3344C5.35739 21.2495 3.44487 19.9685 2.17303 18.5657C0.90118 17.1628 0.295351 15.6662 0.390721 14.1627L5.96556 14.227C5.9843 11.5815 7.31577 9.04763 9.67279 7.17588C11.8807 5.42255 14.8203 4.38383 17.9216 4.24719C18.0098 3.88067 18.2337 3.52074 18.5872 3.17933C19.055 2.72765 19.7405 2.31723 20.6048 1.97153C21.4691 1.62582 22.4951 1.35159 23.6243 1.1645C24.7535 0.9774 25.9638 0.881104 27.1861 0.881104C28.4083 0.881104 29.6186 0.9774 30.7479 1.1645C31.8771 1.35159 32.9031 1.62582 33.7674 1.97153C34.6316 2.31723 35.3172 2.72765 35.7849 3.17933ZM8.0454 14.251L8.19924 14.2528C8.21061 12.2892 9.30759 10.4077 11.2523 9.01863C13.2073 7.62226 15.8587 6.83778 18.6234 6.83779C21.388 6.83779 24.0395 7.62226 25.9944 9.01863C27.9493 10.415 29.0476 12.3089 29.0476 14.2837H27.3347C27.3347 12.6334 26.4169 11.0507 24.7832 9.88378C23.1495 8.71686 20.9338 8.0613 18.6234 8.0613C16.313 8.06129 14.0972 8.71686 12.4635 9.88378C10.8335 11.0481 9.91617 12.6263 9.91208 14.2726L10.4375 14.2786C10.5077 12.8176 11.381 11.4265 12.8864 10.3894C14.4573 9.30723 16.5879 8.69926 18.8095 8.69926C21.0311 8.69926 23.1618 9.30723 24.7327 10.3894C26.3036 11.4716 27.1861 12.9394 27.1861 14.4698H26.9994L27 14.4698H39.7535C39.69 13.8335 39.302 13.2285 38.6495 12.7571C37.9336 12.2399 36.9519 11.9214 35.8997 11.8649C34.8475 11.8084 33.802 12.0182 32.9713 12.4524C32.1406 12.8866 31.5855 13.5134 31.4167 14.2081L31.2808 14.1934C31.2811 14.2235 31.2813 14.2536 31.2813 14.2837H29.2013C29.2013 12.0558 28.0869 9.91918 26.1031 8.34384C24.1194 6.7685 21.4288 5.88348 18.6233 5.88348C15.8179 5.88348 13.1273 6.7685 11.1436 8.34384C9.16947 9.91149 8.05623 12.0349 8.0454 14.251ZM40.5809 14.4698H40.9697C40.9007 13.5474 40.3207 12.6722 39.3364 12.016C38.2862 11.3159 36.8618 10.9225 35.3766 10.9225C33.8913 10.9225 32.4669 11.3159 31.4167 12.016C31.239 12.1345 31.1061 12.1898 31.0077 12.2049C31.079 12.4725 31.1366 12.743 31.1802 13.0156C31.5019 12.6336 31.9356 12.2941 32.4617 12.0191C33.4558 11.4995 34.7069 11.2485 35.966 11.3161C37.2251 11.3837 38.3998 11.7648 39.2564 12.3837C40.0497 12.9569 40.5163 13.695 40.5809 14.4698ZM25.8096 14.4561C25.8044 13.1821 25.0675 11.961 23.7594 11.0599C22.4466 10.1555 20.6661 9.64748 18.8095 9.64748C16.953 9.64748 15.1724 10.1555 13.8597 11.0599C12.607 11.9229 11.8781 13.0792 11.814 14.2945L11.9438 14.296C12.0714 13.2429 12.7559 12.2495 13.8848 11.4969C15.1415 10.6591 16.846 10.1884 18.6233 10.1884C20.4006 10.1884 22.1051 10.6591 23.3619 11.4969C24.5457 12.2862 25.2409 13.3403 25.3175 14.4504L25.8096 14.4561ZM24.2139 14.4377C24.1339 13.5271 23.556 12.6645 22.5832 12.016C21.533 11.3159 20.1086 10.9225 18.6233 10.9225C17.1381 10.9225 15.7137 11.3159 14.6634 12.016C13.7367 12.6339 13.1683 13.446 13.0475 14.3088L13.8092 14.3176C13.9255 13.5532 14.4334 12.8348 15.2556 12.2867C16.1981 11.6583 17.4765 11.3053 18.8095 11.3053C20.1425 11.3053 21.4208 11.6583 22.3634 12.2867C23.2269 12.8623 23.7437 13.6259 23.8243 14.4332L24.2139 14.4377ZM22.9951 14.4236C22.913 13.7661 22.4845 13.1461 21.7794 12.676C20.9917 12.1509 19.9234 11.8559 18.8095 11.8559C17.6956 11.8559 16.6272 12.1509 15.8396 12.676C15.169 13.123 14.7487 13.7056 14.6384 14.3271L22.9951 14.4236ZM32.228 4.38889C32.2946 4.45075 32.3531 4.51373 32.4032 4.57758C32.227 4.61988 32.0526 4.66584 31.8801 4.71533C31.6487 4.50348 31.3453 4.30967 30.9807 4.14141C30.5313 3.93398 29.9977 3.76945 29.4105 3.65719C28.8234 3.54493 28.194 3.48715 27.5584 3.48715C26.9229 3.48715 26.2935 3.54493 25.7063 3.65719C25.1191 3.76945 24.5856 3.93398 24.1362 4.14141C23.6867 4.34883 23.3302 4.59508 23.087 4.86609L23.079 4.87508C22.8162 4.7966 22.5501 4.72504 22.281 4.66054C22.3426 4.56817 22.4212 4.47739 22.5165 4.38889C22.7806 4.14364 23.1678 3.92079 23.6558 3.73308C24.1439 3.54537 24.7233 3.39647 25.3609 3.29488C25.9986 3.1933 26.682 3.14101 27.3722 3.14101C28.0624 3.14101 28.7459 3.1933 29.3836 3.29488C30.0212 3.39647 30.6006 3.54537 31.0887 3.73308C31.5767 3.92079 31.9639 4.14364 32.228 4.38889ZM30.036 4.5774C30.3528 4.7236 30.6058 4.89644 30.7815 5.08653C30.4047 5.23344 30.0368 5.39744 29.6772 5.57707C29.5799 5.46312 29.4692 5.35636 29.3466 5.25829C29.0874 5.05086 28.7796 4.88633 28.4408 4.77407C28.102 4.66181 27.7389 4.60403 27.3723 4.60403C27.0056 4.60403 26.6425 4.66181 26.3037 4.77407C25.965 4.88633 25.6572 5.05086 25.3979 5.25829C25.2613 5.36757 25.1396 5.48762 25.0344 5.61639C24.7617 5.4892 24.4834 5.37028 24.2 5.25983C24.2344 5.20641 24.2749 5.15374 24.3213 5.10205C24.4974 4.90585 24.7554 4.72757 25.0808 4.5774C25.4062 4.42723 25.7924 4.30811 26.2176 4.22684C26.6427 4.14557 27.0983 4.10374 27.5584 4.10374C28.0186 4.10374 28.4742 4.14557 28.8993 4.22684C29.3244 4.30811 29.7107 4.42723 30.036 4.5774ZM28.8017 5.69428C28.8881 5.76347 28.9664 5.83863 29.0356 5.91876C28.458 6.24553 27.9018 6.61251 27.3641 7.01311C26.8415 6.61691 26.2806 6.25946 25.6883 5.94311C25.7625 5.85382 25.8477 5.77044 25.9429 5.69428C26.1306 5.54411 26.3534 5.42499 26.5987 5.34372C26.8439 5.26245 27.1068 5.22062 27.3723 5.22062C27.6377 5.22062 27.9006 5.26245 28.1458 5.34372C28.3911 5.42499 28.6139 5.54411 28.8017 5.69428ZM20.5034 4.25857C20.5794 4.02335 20.7329 3.79266 20.9608 3.5726C21.2994 3.24559 21.7957 2.94846 22.4214 2.69818C23.0471 2.4479 23.79 2.24937 24.6075 2.11392C25.425 1.97847 26.3012 1.90875 27.1861 1.90875C28.071 1.90875 28.9472 1.97847 29.7647 2.11392C30.5822 2.24937 31.325 2.4479 31.9507 2.69818C32.5764 2.94846 33.0728 3.24559 33.4114 3.5726C33.4443 3.60434 33.4756 3.63631 33.5054 3.66849C33.2198 3.49509 32.8848 3.33391 32.5056 3.18809C31.8315 2.92881 31.0312 2.72314 30.1504 2.58282C29.2696 2.4425 28.3256 2.37027 27.3722 2.37027C26.4189 2.37027 25.4749 2.4425 24.5941 2.58282C23.7133 2.72314 22.913 2.92881 22.2388 3.18809C21.5647 3.44737 21.03 3.75518 20.6651 4.09395C20.6067 4.14823 20.5528 4.20313 20.5034 4.25857Z" fill="#D29F7A"/>
</svg>
